<?xml version="1.0" standalone="no"?>
<!DOCTYPE svg PUBLIC "-//W3C//DTD SVG 1.1//EN" "http://www.w3.org/Graphics/SVG/1.1/DTD/svg11.dtd">
<svg xmlns="http://www.w3.org/2000/svg">
<metadata>Copyright (C) 2023 by original authors @ fontello.com</metadata>
<defs>
<font id="fontello" horiz-adv-x="1000" >
<font-face font-family="fontello" font-weight="400" font-stretch="normal" units-per-em="1000" ascent="850" descent="-150" />
<missing-glyph horiz-adv-x="1000" />
<glyph glyph-name="delete" unicode="&#xe800;" d="M544 488c-13 0-23-11-23-24v-442c0-13 10-24 23-24 13 0 24 11 24 24v442c0 13-11 24-24 24z m0 0m-276 0c-13 0-23-11-23-24v-442c0-13 10-24 23-24 13 0 23 11 23 24v442c0 13-10 24-23 24z m0 0m-201 64v-577c0-34 12-66 34-89 22-23 52-36 84-36h443c31 0 62 13 83 36 22 23 35 55 35 89v577c43 12 71 54 65 98-5 45-43 78-88 78h-120v30c0 24-10 48-27 65-18 18-41 27-66 27h-208c-24 0-48-9-66-27-17-17-27-41-27-65v-30h-119c-45 0-83-33-89-78-6-44 22-86 66-98z m561-655h-443c-40 0-72 34-72 78v575h586v-575c0-44-31-78-71-78z m-372 861c0 12 5 23 14 32 8 9 20 13 32 13h208c12 0 24-4 33-13 8-9 13-20 13-32v-30h-300z m-166-77h633c23 0 42-18 42-42s-19-42-42-42h-633c-24 0-43 19-43 42s19 42 43 42z m0 0m316-193c-13 0-23-11-23-24v-442c0-13 10-24 23-24 13 0 24 11 24 24v442c0 13-11 24-24 24z m0 0" horiz-adv-x="1000" />

<glyph glyph-name="add" unicode="&#xe801;" d="M500 850c-276 0-500-224-500-500s224-500 500-500 500 224 500 500-224 500-500 500z m0-923c-233 0-422 190-422 423s189 423 422 423 423-190 423-423-190-423-423-423z m194 465h-155v155c0 22-18 39-39 39s-39-17-39-39v-155h-155c-21 0-38-17-38-38s17-39 38-39h155v-155c0-21 18-39 39-39s39 18 39 39v155h155c21 0 38 17 38 39s-17 38-38 38z" horiz-adv-x="1000" />

<glyph glyph-name="plus" unicode="&#xe802;" d="M961 389h-422v422c0 22-17 39-39 39-22 0-39-17-39-39v-422h-422c-21 0-39-17-39-39s18-39 39-39h422v-422c0-22 17-39 39-39s39 17 39 39v422h422c22 0 39 17 39 39 0 22-17 39-39 39z" horiz-adv-x="1000" />

<glyph glyph-name="asterisk" unicode="&#xe803;" d="M500-150c-65 0-117 53-117 117v180l-156-90c-18-10-38-16-58-16-42 0-81 23-102 59-16 27-20 59-12 89s28 55 55 71l156 90-156 90c-27 16-47 41-55 71s-4 62 12 89c32 56 104 75 160 43l156-90v180c0 64 52 117 117 117s117-53 117-117v-180l156 90c27 16 59 20 89 12 30-8 55-28 71-55 16-27 20-59 12-89s-28-55-55-71l-156-90 156-90c27-16 47-41 55-71s4-62-12-89c-21-36-60-59-102-59-20 0-40 6-58 16l-156 90v-180c0-64-52-117-117-117z m-88 377c5 0 10-1 15-4 9-5 14-15 14-25v-231c0-32 27-58 59-58s59 26 59 58v231c0 10 5 20 14 25 9 5 21 5 30 0l199-115c9-5 19-8 29-8 21 0 41 11 51 29 8 14 10 30 6 45-4 15-14 28-27 35l-200 116c-9 5-14 15-14 25s5 20 14 25l200 116c13 8 23 20 27 35s2 31-6 45-20 23-35 27c-15 4-31 2-45-6l-199-115c-9-5-21-5-30 0s-14 15-14 25v231c0 32-27 58-59 58s-59-26-59-58v-231c0-10-5-20-14-25s-20-5-29 0l-200 115c-28 16-64 7-80-21-8-14-10-30-6-45 4-15 14-27 27-35l200-116c9-5 15-14 15-25s-6-20-15-25l-200-116c-13-7-23-20-27-35s-2-31 6-45c10-18 30-29 51-29 10 0 20 3 29 8l200 115c4 3 9 4 14 4z" horiz-adv-x="1000" />

<glyph glyph-name="rooms" unicode="&#xe804;" d="M943 192v54c0 50-41 90-91 90h-348c-8 0-15-6-15-14s7-15 15-15h348c34 0 62-28 62-61v-54c-33-7-57-36-57-70v-55h-469v55c0 34-25 63-57 70v54c0 33 27 61 61 61h53c8 0 15 7 15 15s-7 14-15 14h-53c-50 0-91-40-91-90v-54c-32-7-57-36-57-70v-210c0-8 7-14 15-14h453c8 0 14 6 14 14s-6 15-14 15h-324v111h469v-111h-87c-8 0-14-6-14-15s6-14 14-14h215c8 0 15 6 15 14v210c0 34-24 63-57 70z m-669-70c0 23 19 42 42 42s42-19 42-42v-195h-84z m697-195h-85v195c0 23 19 42 42 42 24 0 43-19 43-42v-195z m-597 514c1-7 7-13 15-13h467c8 0 14 7 14 15v345c0 8-6 14-14 14h-86c-8 0-14-6-14-14s6-15 14-15h50l-27-27h-342l-27 27h288c8 0 14 6 14 15s-6 14-14 14h-323c-8 0-15-6-15-14v-345c0-1 0-1 0-2z m50 16l27 27h342l27-27z m361 57h-134l-24 27 79 88c5 5 13 5 18 0l61-67z m-173 0h-152v11l64 71c4 4 10 4 14 0z m229 238v-274l-27 27v220z m-56-146l-39 43c-17 18-46 18-62 0l-77-86-47 53c-8 8-18 12-29 12-11 0-21-4-29-12l-42-48v148h325z m-355 119v-220l-27-27v274z m-265-745h-14v508h38v-166c0-8 6-15 14-15s15 7 15 15v166h40c9 0 16 9 14 18l-51 225c-2 7-8 12-14 12h-141c-7 0-13-5-14-12l-52-225c-2-9 5-18 15-18h107v-508h-15c-36 0-65-29-65-65v-3c0-8 7-14 15-14h159c8 0 15 6 15 14v3c0 36-29 65-66 65z m-87 733h117l45-196h-207z m-4-786c5 14 18 24 33 24h58c16 0 29-10 34-24z m533 690c23 0 41 19 41 42 0 23-18 41-41 41-23 0-41-18-41-41s18-42 41-42z m0 54c7 0 12-5 12-12s-5-12-12-12-12 5-12 12c0 7 5 12 12 12z" horiz-adv-x="1000" />

<glyph glyph-name="asterisk(1)" unicode="&#xe805;" d="M182 693l-22 9 22 8c1 1 2 2 2 3 0 3-2 5-3 7-1 3-3 5-5 6-1 1-2 1-3 0l-19-15 4 24c0 2 0 3-2 3-2 1-5 2-7 1-3 1-5 0-8-1-1 0-2-2-1-3l4-24-19 15c-1 1-3 1-4 0-2-1-3-3-4-6-2-2-3-4-3-7-1-1 0-2 1-3l23-8-23-9c-1-1-2-2-2-3 1-3 2-5 3-7 1-2 3-4 5-6 1-1 2-1 3 0l19 15-4-24c0-1 1-3 2-3 2-1 5-1 7-1 3 0 6 0 8 1 1 0 2 2 1 3l-3 24 19-15c0-1 2-1 3 0 2 1 4 3 5 6 1 2 2 4 3 7 0 1-1 2-2 3z" horiz-adv-x="1000" />

<glyph glyph-name="asterisk(2)" unicode="&#xe806;" d="M901 220l-225 130 225 130c42 24 56 78 32 120-24 42-78 56-120 32l-225-130v260c0 49-39 88-88 88s-88-39-88-88v-260l-225 130c-42 24-96 10-120-32s-10-96 32-120l225-130-225-130c-42-24-56-78-32-120 16-28 46-44 76-44 15 0 30 4 44 12l225 130v-260c0-49 40-88 88-88s88 39 88 88v260l225-130c14-8 29-12 44-12 30 0 60 16 76 44 24 42 10 96-32 120z" horiz-adv-x="1000" />

<glyph glyph-name="cloud-computing" unicode="&#xe807;" d="M833 482c-46 185-233 296-417 250-144-36-248-160-259-308-102-17-171-114-154-216 15-91 93-157 185-157h157v63h-157c-69 0-125 56-125 125 0 69 56 125 125 125 18 0 32 14 32 31-1 155 125 281 280 281 135 1 251-94 277-226 2-14 13-24 26-25 86-13 145-92 133-177-11-77-77-134-154-134h-125v-63h125c121 1 218 99 218 220 0 100-69 188-167 211z m-354-127l-125-125 44-44 72 71v-300h62v300l72-71 44 44-125 125c-13 12-32 12-44 0z" horiz-adv-x="1000" />

<glyph glyph-name="camera(1)" unicode="&#xe808;" d="M914 611h-127c-22 0-41 12-51 31l-26 51c-15 29-44 47-77 47h-267c-33 0-63-18-78-48l-24-50c-9-18-27-30-46-31v27c0 16-13 28-28 28h-81c-15 0-27-12-27-28v-28c-46-2-82-40-82-86v-478c0-48 39-86 86-86h29c8 0 14 6 14 14s-6 15-14 15h-29c-31 0-57 26-57 57v478c0 32 26 57 57 57h127c33 0 62 19 77 48l25 50c9 20 29 32 51 32h267c22 0 41-12 51-31l26-51c15-30 44-48 77-48h127c31 0 57-25 57-57v-478c0-31-26-57-57-57h-738c-8 0-14-7-14-15s6-14 14-14h738c47 0 86 38 86 86v478c0 48-39 87-86 87z m-803 0v26h77v-26z m140-315c0-137 112-249 249-249s249 112 249 249-112 248-249 248-249-111-249-248z m249 219c121 0 219-98 219-219 0-121-98-220-219-220s-219 99-219 220c0 121 98 219 219 219z m0-399c99 0 180 80 180 180 0 25-5 49-15 72-3 7-12 10-19 7-7-3-11-12-8-19 9-19 13-39 13-60 0-83-68-151-151-151s-151 68-151 151c0 83 68 151 151 151 39 0 76-15 104-42 6-6 15-6 21 0 6 6 5 15 0 21-34 32-78 50-125 50-99 0-180-81-180-180s81-180 180-180z m-384 428c-26 0-47-21-47-47s21-48 47-48 48 21 48 48-21 47-48 47z m0-66c-10 0-18 8-18 19 0 10 8 18 18 18s19-8 19-18c0-11-8-19-19-19z m457 159c8 0 14 6 14 14s-6 15-14 15h-146c-8 0-14-7-14-15s6-14 14-14z m329-136c8 0 15 6 15 14s-7 15-15 15h-23c-8 0-15-7-15-15s7-14 15-14z" horiz-adv-x="1000" />

<glyph glyph-name="menu" unicode="&#xe809;" d="M958 447h-916c-23 0-42 19-42 42s19 42 42 42h916c23 0 42-19 42-42s-19-42-42-42z m0 0m0 320h-916c-23 0-42 18-42 41s19 42 42 42h916c23 0 42-19 42-42s-19-41-42-41z m0 0m0-639h-916c-23 0-42 18-42 41s19 42 42 42h916c23 0 42-19 42-42s-19-41-42-41z m0 0" horiz-adv-x="1000" />

<glyph glyph-name="place" unicode="&#xe80a;" d="M832 676c-76 111-197 174-332 174s-256-63-332-174c-76-110-93-249-47-372 13-33 32-66 59-97l293-345c7-8 17-12 27-12 10 0 20 4 27 12l293 345c27 31 47 64 59 97 46 123 29 262-47 372z m-19-348c-9-25-25-51-46-75 0 0 0 0 0 0l-267-314-267 314c-21 24-37 50-46 76-39 101-24 216 39 307 63 92 163 144 274 144 111 0 211-52 274-144 63-91 78-206 39-308z m-313 315c-108 0-196-88-196-196s88-196 196-196 196 88 196 196c0 108-88 196-196 196z m0-322c-69 0-126 56-126 126 0 69 57 126 126 126 69 0 126-57 126-126s-57-126-126-126z" horiz-adv-x="1000" />

<glyph glyph-name="edit" unicode="&#xe80b;" d="M924 224c-14 0-25-11-25-25v-221c0-42-33-75-75-75h-699c-42 0-75 33-75 75v650c0 41 33 74 75 74h221c14 0 25 12 25 25 0 14-11 25-25 25h-221c-69 0-125-55-125-124v-650c0-69 56-125 125-125h699c69 0 125 56 125 125v221c0 14-11 25-25 25z m0 0m15 593c-44 43-115 43-158 0l-445-445c-3-3-6-7-7-11l-58-212c-3-8 0-18 6-24 7-6 16-9 24-6l212 58c4 1 8 4 11 7l445 445c43 43 43 114 0 158z m-549-462l364 365 118-118-365-364z m-23-47l93-93-129-36z m566 356l-26-27-118 118 27 26c24 25 64 25 88 0l29-29c25-24 25-64 0-88z m0 0" horiz-adv-x="1000" />

<glyph glyph-name="extra" unicode="&#xe80c;" d="M233 201c-8 8-20 8-28 0l-44-44c-4-4-6-9-6-14s2-10 6-14l118-118c4-4 9-6 14-6s10 2 14 6l44 44c8 8 8 20 0 28-8 7-20 7-27 0l-31-31-32 32 28 27c7 8 7 20 0 28-8 7-20 7-28 0l-27-28-32 32 31 31c7 7 7 20 0 27z m106 130c-11-3-17-14-14-24l15-52-52 15c-10 3-21-3-24-13-3-11 3-22 14-25l75-21 25-88c2-9 10-14 18-14 2 0 4 0 6 0 10 3 16 14 13 25l-18 64 65-18c1-1 3-1 5-1 8 0 16 6 19 14 3 11-3 21-14 24l-88 26-21 75c-3 10-14 16-24 13z m354 336c-9 5-19 3-26-4s-9-17-4-26c0 0 0 0 0 0l77-157c3-7 10-11 17-11 3 0 6 1 9 2 10 5 14 17 9 27l-13 26 44 44 26-13c10-5 22-1 26 9 5 9 1 21-9 26l-156 77c0 0 0 0 0 0z m76-81l-25-25-25 50z m-294-143c-8 8-20 8-28 0l-53-53c-8-8-8-20 0-28 4-3 9-5 14-5s10 2 14 5l12 13 105-104c4-4 9-6 14-6s10 2 13 6c8 7 8 20 0 27l-104 105 13 13c7 7 7 20 0 27z m149 88c-24 25-65 24-91-2l-27-27c0 0 0 0 0 0s0 0 0 0c-7-7-7-20 0-27l119-119c4-3 9-5 14-5s10 2 13 5c8 8 8 20 0 28l-31 31 76-5c0 0 1 0 1 0 10 0 19 8 20 19 0 10-8 20-19 20l-66 4c15 25 12 57-9 78z m-63-29c10 10 27 11 36 2 9-10 8-26-2-36-3-4-8-8-13-13-6 6-28 27-34 34z m438 31l-35 220c-5 31-30 56-61 61l-220 35c-23 4-47-4-63-20l-240-240c-7-7-7-20 0-27 8-8 20-8 28 0l239 239c8 8 19 11 30 10l220-36c14-2 26-14 28-28l36-220c1-11-2-22-10-30l-598-598c-13-13-35-13-48 0l-256 256c-13 13-13 35 0 48l235 234c7 8 7 20 0 28-8 8-20 8-28 0l-235-235c-13-13-21-32-21-51s8-38 21-52l256-256c14-13 32-21 52-21 19 0 38 8 51 21l599 599c16 16 24 40 20 63z" horiz-adv-x="1000" />

<glyph glyph-name="towels" unicode="&#xe80d;" d="M846 470h-126c11 19 17 41 17 63 0 17-14 31-31 31h-70c54 47 85 116 85 187 0 18-14 32-31 32-47 0-94-14-133-39-15 36-36 69-64 97-12 12-32 12-44 0 0 0 0 0 0 0-27-28-49-61-63-97-40 25-86 39-134 39-17 0-31-14-31-32 0-71 31-140 85-187h-54c-17 0-31-14-31-31 0-22 6-44 17-63h-79c-86 0-156-69-157-156 0-40 16-79 44-108-43-28-57-85-29-129 3-5 6-9 9-13-34-39-31-98 8-132 17-16 39-24 62-24h688c86 0 156 69 156 156 0 40-16 79-44 108 44 28 57 85 30 129-3 5-6 9-10 13 35 39 31 98-7 132-17 16-40 24-63 24z m-340 97c14 76 73 136 150 150-15-76-74-136-150-150z m-35 204c16-21 27-45 34-71-13-14-24-30-34-47-9 17-21 33-34 47 7 26 19 50 34 71z m-184-54c76-14 135-74 150-150-76 14-136 74-150 150l0 0z m5-216h374c-11-19-32-31-54-31h-266c-22 0-43 12-54 31z m-133-93h687c17 0 31-14 31-32 0-17-14-31-31-31h-687c-18 0-32-14-32-31s14-31 32-31h687c17 0 31-14 31-32s-14-31-31-31h-687c-52 0-94 42-94 94s42 94 94 94z m625-438h-688c-17 0-31 14-31 31s14 32 31 32h688c17 0 31 14 31 31s-14 31-31 31h-688c-17 0-31 14-31 31s14 32 31 32h688c51 0 93-42 93-94s-42-94-93-94z" horiz-adv-x="1000" />

<glyph glyph-name="review" unicode="&#xe80e;" d="M422 225h31v-31h-31z m62 0h32v-31h-32z m63 0h31v-31h-31z m-125-62h31v-32h-31z m62 0h32v-32h-32z m63 0h31v-32h-31z m-125-63h31v-31h-31z m62 0h32v-31h-32z m63 0h31v-31h-31z m-125 250h31v-31h-31z m62 0h32v-31h-32z m63 0h31v-31h-31z m-125-62h31v-32h-31z m62 0h32v-32h-32z m63 0h31v-32h-31z m-200 401l65-63-15-90a16 16 0 0 1 23-16l80 42 80-42a16 16 0 0 1 23 16l-15 90 65 63a16 16 0 0 1-9 27l-90 13-40 81a16 16 0 0 1-28 0l-40-81-90-13a16 16 0 0 1-9-27z m112 10a16 16 0 0 1 11 9l30 60 30-60a16 16 0 0 1 12-9l66-10-48-47a16 16 0 0 1-4-13l11-67-60 32a16 16 0 0 1-14 0l-60-32 12 67a16 16 0 0 1-5 13l-48 47z m182-134a16 16 0 0 1 4-16l44-42-11-60a16 16 0 0 1 23-16l54 28 53-28a16 16 0 0 1 23 16l-10 60 43 42a16 16 0 0 1-9 26l-60 9-26 54a16 16 0 0 1-28 0l-27-54-60-9a16 16 0 0 1-13-10z m85-11a16 16 0 0 1 12 9l17 33 16-33a16 16 0 0 1 12-9l36-5-26-26a16 16 0 0 1-5-14l7-36-33 17a16 16 0 0 1-15 0l-32-17 6 36a16 16 0 0 1-5 14l-26 26z m90-159a16 16 0 0 1-9-27l28-27-6-38a16 16 0 0 1 22-17l35 18 34-18a16 16 0 0 1 23 17l-7 38 28 27a16 16 0 0 1-9 27l-38 5-17 35a16 16 0 0 1-28 0l-17-35z m63-16l7 14 7-14a16 16 0 0 1 11-8l16-3-11-10a16 16 0 0 1-5-14l3-15-14 7a16 16 0 0 1-15 0l-13-7 2 15a16 16 0 0 1-4 14l-11 10 15 3a16 16 0 0 1 12 8z m-743 170l44-42-11-60a16 16 0 0 1 23-16l54 28 53-28a16 16 0 0 1 23 16l-11 60 44 42a16 16 0 0 1-9 26l-60 9-26 54a16 16 0 0 1-29 0l-26-54-60-9a16 16 0 0 1-9-26z m81 5a16 16 0 0 1 12 9l17 33 16-33a16 16 0 0 1 12-9l36-5-26-26a16 16 0 0 1-5-14l7-36-33 17a16 16 0 0 1-15 0l-32-17 6 36a16 16 0 0 1-5 14l-26 26z m-181-186l28-27-7-38a16 16 0 0 1 23-17l34 18 35-18a16 16 0 0 1 22 17l-6 38 28 27a16 16 0 0 1-9 27l-38 5-18 35a16 16 0 0 1-28 0l-17-35-38-5a16 16 0 0 1-9-27z m60 3a16 16 0 0 1 12 8l6 14 7-14a16 16 0 0 1 12-8l15-3-11-10a16 16 0 0 1-4-14l2-15-13 7a16 16 0 0 1-15 0l-14-7 3 15a16 16 0 0 1-4 14l-11 10z m185-83h47v-32h-47z m0-79h47v-31h-47z m0-78h47v-31h-47z m0-78h47v-31h-47z m625 31h-31a63 63 0 0 1-62-62v-32a74 74 0 0 1-32-13v76h-31v-78h-109v359h109v-250h31v266a16 16 0 0 1-15 16h-125v78a16 16 0 0 1-16 15h-47v32a16 16 0 0 1-15 15h-125a16 16 0 0 1-16-15v-32h-47a16 16 0 0 1-16-15v-78h-125a16 16 0 0 1-15-16v-94h31v78h109v-359h-109v250h-31v-248a74 74 0 0 1-31 13v32a63 63 0 0 1-63 62h-31a63 63 0 0 1-63-62v-125a16 16 0 0 1 16-16h906a16 16 0 0 1 16 16v125a63 63 0 0 1-63 62z m-453 391h94v-62h-94z m-390-453a31 31 0 0 0 31 31h31a31 31 0 0 0 31-31v-32a74 74 0 0 1-62-74v-4h-31z m62-110v4a43 43 0 0 0 43 43h8a43 43 0 0 0 43-43v-4z m125 32h109v-32h-109z m141 484h31v-31a16 16 0 0 1 16-16h125a16 16 0 0 1 15 16v31h31v-516h-46v110a16 16 0 0 1-16 16h-94a16 16 0 0 1-15-16v-110h-47z m78-516v94h62v-94z m172 32h109v-32h-109z m140-32v4a43 43 0 0 0 43 43h8a43 43 0 0 0 43-43v-4z m157 0h-32v4a74 74 0 0 1-62 74v32a31 31 0 0 0 31 31h31a31 31 0 0 0 32-31z m-266 219h47v-31h-47z m0-78h47v-31h-47z m0 235h47v-32h-47z m0-79h47v-31h-47z" horiz-adv-x="1000" />

<glyph glyph-name="event" unicode="&#xe80f;" d="M891 756h-94v16a47 47 0 0 1-94 0v-16h-156v16a47 47 0 0 1-94 0v-16h-156v16a47 47 0 0 1-94 0v-16h-94a78 78 0 0 1-78-78v-719a78 78 0 0 1 78-78h782a78 78 0 0 1 78 78v719a78 78 0 0 1-78 78z m-157 16a16 16 0 0 0 32 0v-94a16 16 0 0 0-32 0z m-250 0a16 16 0 0 0 32 0v-94a16 16 0 0 0-32 0z m-250 0a16 16 0 0 0 32 0v-94a16 16 0 0 0-32 0z m-125-47h94v-47a47 47 0 0 1 94 0v47h156v-47a47 47 0 0 1 94 0v47h156v-47a47 47 0 0 1 94 0v47h94a47 47 0 0 0 47-47v-109h-875v109a47 47 0 0 0 46 47z m782-813h-782a47 47 0 0 0-46 47v579h875v-579a47 47 0 0 0-47-47z m-32 516h-62a16 16 0 0 1-16-15v-63a16 16 0 0 1 16-16h62a16 16 0 0 1 16 16v63a16 16 0 0 1-16 15z m-15-62h-31v31h31z m-297-250h-63a16 16 0 0 1-15-16v-62a16 16 0 0 1 15-16h63a16 16 0 0 1 16 16v62a16 16 0 0 1-16 16z m-16-63h-31v31h31z m-140 375h-63a16 16 0 0 1-15-15v-63a16 16 0 0 1 15-16h63a16 16 0 0 1 15 16v63a16 16 0 0 1-15 15z m-16-62h-31v31h31z m-141-94h-62a16 16 0 0 1-16-16v-62a16 16 0 0 1 16-16h62a16 16 0 0 1 16 16v62a16 16 0 0 1-16 16z m-15-63h-31v32h31z m172 63h-63a16 16 0 0 1-15-16v-62a16 16 0 0 1 15-16h63a16 16 0 0 1 15 16v62a16 16 0 0 1-15 16z m-16-63h-31v32h31z m-141-93h-62a16 16 0 0 1-16-16v-62a16 16 0 0 1 16-16h62a16 16 0 0 1 16 16v62a16 16 0 0 1-16 16z m-15-63h-31v31h31z m172 63h-63a16 16 0 0 1-15-16v-62a16 16 0 0 1 15-16h63a16 16 0 0 1 15 16v62a16 16 0 0 1-15 16z m-16-63h-31v31h31z m346 311l-78 12-35 74a16 16 0 0 1-28 0l-35-74-79-12a16 16 0 0 1-8-27l57-58-14-83a16 16 0 0 1 23-16l70 39 69-39a16 16 0 0 1 23 16l-13 83 57 58a16 16 0 0 1-9 27z m-76-69a16 16 0 0 1-4-13l9-59-49 27a16 16 0 0 1-15 0l-49-27 10 59a16 16 0 0 1-5 13l-41 42 57 9a16 16 0 0 1 11 9l25 52 24-52a16 16 0 0 1 12-9l56-9z m214-23h-62a16 16 0 0 1-16-16v-62a16 16 0 0 1 16-16h62a16 16 0 0 1 16 16v62a16 16 0 0 1-16 16z m-15-63h-31v32h31z m15-93h-62a16 16 0 0 1-16-16v-62a16 16 0 0 1 16-16h62a16 16 0 0 1 16 16v62a16 16 0 0 1-16 16z m-15-63h-31v31h31z m-141 63h-62a16 16 0 0 1-16-16v-62a16 16 0 0 1 16-16h62a16 16 0 0 1 16 16v62a16 16 0 0 1-16 16z m-15-63h-32v31h32z" horiz-adv-x="1000" />

<glyph glyph-name="hotel" unicode="&#xe810;" d="M981-17h-40v758c0 10-8 19-19 19h-144v71c0 10-9 19-19 19h-517c-11 0-20-9-20-19v-71h-144c-11 0-19-9-19-19v-758h-39c-11 0-20-9-20-20v-94c0-10 9-19 20-19h392c11 0 20 9 20 19s-9 20-20 20h-373v55h922v-55h-373c-11 0-20-9-20-20s9-19 20-19h393c10 0 19 9 19 19v94c0 11-9 20-19 20z m-720 828h478v-51h-478z m220-828h-102v117c0 60 44 110 102 120z m39 0v237c57-10 101-60 101-120v-117z m140 0v117c0 88-72 160-160 160s-160-72-160-160v-117h-242v738h804v-738z m-394 652h-94c-11 0-20-9-20-19v-94c0-11 9-20 20-20h94c10 0 19 9 19 20v94c0 10-9 19-19 19z m-20-94h-55v55h55z m207 94h-94c-10 0-19-9-19-19v-94c0-11 9-20 19-20h94c11 0 20 9 20 20v94c0 10-9 19-20 19z m-19-94h-55v55h55z m207 94h-94c-11 0-20-9-20-19v-94c0-11 9-20 20-20h94c10 0 19 9 19 20v94c0 10-9 19-19 19z m-20-94h-55v55h55z m207 94h-94c-10 0-19-9-19-19v-94c0-11 9-20 19-20h94c11 0 20 9 20 20v94c0 10-9 19-20 19z m-19-94h-55v55h55z m-543-93h-94c-11 0-20-9-20-20v-94c0-10 9-19 20-19h94c10 0 19 9 19 19v94c0 11-9 20-19 20z m-20-94h-55v55h55z m207 94h-94c-10 0-19-9-19-20v-94c0-10 9-19 19-19h94c11 0 20 9 20 19v94c0 11-9 20-20 20z m-19-94h-55v55h55z m207 94h-94c-11 0-20-9-20-20v-94c0-10 9-19 20-19h94c10 0 19 9 19 19v94c0 11-9 20-19 20z m-20-94h-55v55h55z m207 94h-94c-10 0-19-9-19-20v-94c0-10 9-19 19-19h94c11 0 20 9 20 19v94c0 11-9 20-20 20z m-19-94h-55v55h55z m-543-94h-94c-11 0-20-9-20-19v-94c0-11 9-20 20-20h94c10 0 19 9 19 20v94c0 10-9 19-19 19z m-20-94h-55v55h55z m582 94h-94c-10 0-19-9-19-19v-94c0-11 9-20 19-20h94c11 0 20 9 20 20v94c0 10-9 19-20 19z m-19-94h-55v55h55z m-309-277c-5 0-10-2-14-6s-5-8-5-14 2-10 5-13c4-4 9-6 14-6s10 2 14 6c3 3 6 8 6 13s-3 11-6 14c-4 4-9 6-14 6z" horiz-adv-x="1000" />

<glyph glyph-name="location" unicode="&#xe811;" d="M734 78c-29 15-65 26-106 34 81 121 178 295 178 432 0 169-137 306-306 306s-306-137-306-306c0-135 98-311 179-432-41-8-77-19-106-34-60-31-73-66-73-91 0-42 35-79 100-104 55-21 129-33 206-33s151 12 206 33c65 25 100 62 100 104 0 25-13 60-72 91z m-234 713c136 0 247-111 247-247 0-171-182-425-247-510-65 86-247 341-247 510 0 136 111 247 247 247z m185-853c-49-19-115-29-185-29s-136 10-185 29c-43 17-62 37-62 49 0 21 54 57 156 72 37-52 65-87 68-91 6-7 14-11 23-11h0c9 0 17 4 23 11 3 4 31 39 68 91 102-15 156-51 156-72 0-12-19-32-62-49z m-126 544v-91c0-17 13-30 29-30s29 13 29 30v242c0 16-13 29-29 29s-29-13-29-29v-92h-118v92c0 16-13 29-29 29s-29-13-29-29v-242c0-17 13-30 29-30s29 13 29 30v91h118z" horiz-adv-x="1000" />

<glyph glyph-name="danger" unicode="&#xe812;" d="M987 56l-410 681c-16 26-46 43-77 43-31 0-61-17-77-43l-410-681c-17-27-17-62-1-90 16-29 46-46 78-46h820c33 0 63 17 78 46 16 28 16 63-1 90z m-55-58c-5-8-13-13-22-13h-820c-9 0-17 5-22 13-4 8-4 17 1 25l410 680c4 7 12 12 21 12 9 0 17-5 21-12l410-680c5-8 5-17 1-25z m-432 514c-24 0-44-13-44-37 0-72 9-175 9-247 0-18 16-26 35-26 15 0 35 8 35 26 0 72 9 175 9 247 0 24-20 37-44 37z m1-352c-27 0-47-21-47-47 0-24 20-46 47-46 25 0 46 22 46 46 0 26-21 47-46 47z" horiz-adv-x="1000" />

<glyph glyph-name="close" unicode="&#xe813;" d="M592 349l390 390c25 25 25 66 0 92-26 25-66 25-92 0l-390-390-389 390c-26 25-67 25-92 0-25-26-25-67 0-92l390-390-390-390c-25-25-25-66 0-91 13-13 29-19 46-19 17 0 33 6 46 19l389 390 390-390c13-13 29-19 46-19 17 0 33 6 46 19 25 25 25 66 0 91z m0 0" horiz-adv-x="1000" />

<glyph glyph-name="down-arrow" unicode="&#xe814;" d="M987 597c-18 19-48 20-67 2l-420-398-420 398c-19 18-49 17-67-2-18-19-17-49 2-67l452-429c9-8 21-13 33-13 12 0 24 5 33 13l452 429c19 18 20 48 2 67z" horiz-adv-x="1000" />

<glyph glyph-name="cancel" unicode="&#xe815;" d="M854 704c-196 195-512 195-707 0-196-196-196-512 0-708 195-195 511-195 707 0 195 196 195 512 0 708z m-59-649c-163-162-427-162-590 0-162 163-162 427 0 590 163 162 427 162 590 0s162-427 0-590z m-89 501c-16 17-42 17-59 0l-147-147-147 147c-17 17-43 17-59 0s-16-42 0-59l147-147-147-147c-16-16-16-43 0-59 16-16 43-16 59 0l147 147 147-147c17-16 43-16 59 0 17 16 17 42 0 59l-147 147 147 147c17 17 17 43 0 59z" horiz-adv-x="1000" />

<glyph glyph-name="cancel(1)" unicode="&#xe816;" d="M854 704c-195 195-513 195-708 0-195-195-195-513 0-708 98-97 226-146 354-146s256 49 354 146c195 195 195 513 0 708z m-148-501c17-17 17-43 0-59-8-8-18-13-29-13-11 0-21 5-30 13l-147 147-147-147c-8-8-19-12-30-12-10 0-21 4-29 12-17 16-17 42 0 59l147 147-147 147c-17 17-17 43 0 59 16 17 42 17 59 0l147-147 147 147c17 17 43 17 59 0 17-16 17-42 0-59l-147-147 147-147z" horiz-adv-x="1000" />

<glyph glyph-name="attention" unicode="&#xe817;" d="M571 83v106q0 8-5 13t-12 5h-108q-7 0-12-5t-5-13v-106q0-8 5-13t12-6h108q7 0 12 6t5 13z m-1 208l10 257q0 6-5 10-7 6-14 6h-122q-6 0-14-6-5-4-5-12l9-255q0-5 6-9t13-3h103q8 0 14 3t5 9z m-7 522l428-786q20-35-1-70-9-17-26-26t-35-10h-858q-18 0-35 10t-26 26q-21 35-1 70l429 786q9 17 26 27t36 10 36-10 27-27z" horiz-adv-x="1000" />

<glyph glyph-name="attention-circled" unicode="&#xe818;" d="M429 779q116 0 215-58t156-156 57-215-57-215-156-156-215-58-216 58-155 156-58 215 58 215 155 156 216 58z m71-696v106q0 8-5 13t-12 5h-107q-8 0-13-5t-6-13v-106q0-8 6-13t13-6h107q7 0 12 6t5 13z m-1 192l10 346q0 7-6 10-5 5-13 5h-123q-8 0-13-5-6-3-6-10l10-346q0-6 5-10t14-4h103q8 0 13 4t6 10z" horiz-adv-x="857.1" />

<glyph glyph-name="location-1" unicode="&#xe819;" d="M429 493q0 59-42 101t-101 42-101-42-42-101 42-101 101-42 101 42 42 101z m142 0q0-61-18-100l-203-432q-9-18-27-29t-37-11-38 11-26 29l-204 432q-18 39-18 100 0 118 84 202t202 84 202-84 83-202z" horiz-adv-x="571.4" />

<glyph glyph-name="cancel-circled" unicode="&#xe81a;" d="M641 224q0 14-10 25l-101 101 101 101q10 11 10 25 0 15-10 26l-51 50q-10 11-25 11-15 0-25-11l-101-101-101 101q-11 11-25 11-16 0-26-11l-50-50q-11-11-11-26 0-14 11-25l101-101-101-101q-11-11-11-25 0-15 11-26l50-50q10-11 26-11 14 0 25 11l101 101 101-101q10-11 25-11 15 0 25 11l51 50q10 11 10 26z m216 126q0-117-57-215t-156-156-215-58-216 58-155 156-58 215 58 215 155 156 216 58 215-58 156-156 57-215z" horiz-adv-x="857.1" />

<glyph glyph-name="up-chevron" unicode="&#xe81b;" d="M500 575l363-362 137 137-500 500-500-500 137-137z m0 192l417-417-54-55-363 363-363-363-54 55z m0 0m-500-778l137-138 363 363 363-363 137 138-500 500z m863-55l-363 363-363-363-54 55 417 417 417-417z m0 0" horiz-adv-x="1000" />

<glyph glyph-name="human" unicode="&#xe81c;" d="M500 321c-146 0-265 118-265 264s119 265 265 265 265-118 265-265-119-264-265-264z m0 58c114 0 206 93 206 206s-92 206-206 206-206-92-206-206 92-206 206-206z m-262-184c-69-19-114-85-107-156l16-157c2-16-10-30-26-32-17-2-31 10-33 26l-15 157c-10 100 53 192 149 219 49 14 98 24 148 31 12 1 24-5 30-16l74-142c8-14 25-20 40-12 5 2 9 7 12 12l75 142c5 11 17 17 29 16 50-7 99-17 148-31 96-27 159-119 149-219l-15-157c-2-16-16-28-33-26-16 2-27 16-26 32l16 157c7 71-38 137-107 156-39 12-79 20-119 26l-65-123c-8-16-21-29-37-38-43-22-96-6-119 38l-65 123c-40-6-79-14-119-26z" horiz-adv-x="1000" />

<glyph glyph-name="dollar" unicode="&#xe81d;" d="M500-150c-134 0-259 52-354 146s-146 220-146 354 52 259 146 354 220 146 354 146 259-52 354-146 146-220 146-354-52-259-146-354-220-146-354-146z m0 938c-241 0-437-197-437-438s196-438 437-438 438 197 438 438-197 438-438 438z m0-407c-43 0-78 35-78 78s35 79 78 79 78-35 78-79c0-17 14-31 31-31s32 14 32 31c0 67-47 123-110 138v34c0 18-14 32-31 32s-31-14-31-32v-34c-63-15-110-71-110-138 0-77 64-140 141-140 43 0 78-35 78-78s-35-78-78-78-78 35-78 78c0 17-14 31-31 31s-32-14-32-31c0-67 47-123 110-137v-35c0-17 14-31 31-31s31 14 31 31v35c63 14 110 70 110 137 0 77-63 140-141 140z" horiz-adv-x="1000" />

<glyph glyph-name="ok-circled2" unicode="&#xe81e;" d="M654 396l-236-235q-11-11-25-11t-25 11l-164 164q-11 11-11 25t11 25l57 57q10 11 25 11t25-11l82-82 153 154q11 10 25 10t26-10l57-57q10-11 10-26t-10-25z m78-46q0 83-41 152t-110 111-152 41-153-41-110-111-41-152 41-152 110-111 153-41 152 41 110 111 41 152z m125 0q0-117-57-215t-156-156-215-58-216 58-155 156-58 215 58 215 155 156 216 58 215-58 156-156 57-215z" horiz-adv-x="857.1" />

<glyph glyph-name="ok-circled" unicode="&#xe81f;" d="M717 440q0 16-10 26l-51 50q-11 11-25 11t-25-11l-228-227-126 126q-11 11-25 11t-25-11l-51-50q-10-10-10-26 0-15 10-25l202-202q10-10 25-10 15 0 26 10l303 303q10 10 10 25z m140-90q0-117-57-215t-156-156-215-58-216 58-155 156-58 215 58 215 155 156 216 58 215-58 156-156 57-215z" horiz-adv-x="857.1" />

<glyph glyph-name="ok" unicode="&#xe820;" d="M933 534q0-22-16-38l-404-404-76-76q-16-15-38-15t-38 15l-76 76-202 202q-15 16-15 38t15 38l76 76q16 16 38 16t38-16l164-165 366 367q16 16 38 16t38-16l76-76q16-15 16-38z" horiz-adv-x="1000" />

<glyph glyph-name="planet-earth" unicode="&#xe821;" d="M757-56c-5 9-17 12-26 7l-1-1c-10-5-13-17-7-26 3-7 10-10 17-10 3 0 6 1 9 3l1 0c9 5 13 17 7 27z m176 656c-67 116-175 198-303 233-129 34-264 17-380-50-115-67-198-175-233-304-34-129-17-263 50-379 60-104 155-183 268-222 54-19 110-28 165-28 61 0 122 11 179 33 10 4 15 15 11 25s-15 15-25 11c-152-58-317-32-441 61l18 91 8 3c32 11 50 45 39 77l-6 19c-1 4-1 9 0 13 6 17 4 35-5 50-9 15-24 25-41 29l-44 8-85 65c-5 4-12 5-18 3l-50-16c-1 18-1 36 0 53 2-2 3-3 4-4 1-1 2-3 4-4 4-4 8-5 15-5 7 0 18 1 35 4 17 2 33 5 33 5 7 1 12 5 15 11 3 7 2 14-2 19l-24 35 35 25c2 1 4 3 5 6l53 93 22 23c22 23 28 57 16 87-8 18-20 32-36 42 17 13 35 26 55 37 71 41 148 61 225 62l-35-44-129-45c-6-2-10-6-12-11l-36-88c-3-6-2-13 2-19l53-74c-8-7-15-17-24-29-4-6-7-11-10-14-2-2-4-5-6-7-12-13-24-26-32-44-18-38-14-83 10-117 23-33 62-50 103-45 7 1 13 3 19 4 17 4 22 5 28 0 2-3 3-3 3-12 0-5 0-11 1-19 3-12 11-20 17-27 3-3 6-7 7-9 6-14 3-23-2-40-1-2-1-3-2-5-9-27 4-54 14-78 4-8 7-15 9-22 18-52 31-64 42-69 5-2 11-3 17-3 28 0 57 26 71 42 8 11 10 21 12 29 1 4 1 7 2 9 2 3 4 5 7 8 5 6 12 13 16 26 3 10 5 13 13 21 1 2 3 3 4 5 26 28 20 50 13 73-6 19 4 31 29 55 11 10 23 20 31 33 4 6 16 22 9 39-8 17-25 19-40 22-6 0-14 2-17 4-12 7-19 24-27 40-1 3-2 6-4 9-2 6-5 12-8 19-7 19-15 39-28 54-13 13-36 19-57 25-6 2-13 3-17 5-4 1-8 2-11 1-10-3-17-5-21-9-1-1-5-4-7-9-7 3-17 10-23 14 0 0 0 0-1 0 2 8 1 15-1 19-11 23-47 21-55 20-4 0-9 0-14 0-9-1-18-1-28-2l1 1c7 20 26 33 47 33h11c11 0 19 9 19 20 0 11-8 19-19 19h-11c-31 0-60-16-76-42l-29 41 29 70 126 44c4 1 7 3 9 6l56 71c144-14 279-95 356-229 21-35 36-73 46-111l-8-8c-11-9-17-23-17-38 0 0 0 0 0 0l-14 37c-2 5-5 10-9 15l-24 28c-9 11-23 17-37 17h-29c-11 0-20-5-25-15-5-9-5-20 1-29l3-4c-19-17-41-30-65-38l-40 77v17c0 5-2 11-6 14l-36 35c-2 2-5 3-7 4l-33 12c-10 3-21-2-25-12-4-10 2-22 12-25l29-10 27-26v-14c0-3 1-6 2-9l51-97c4-8 15-12 24-9l15 5c34 13 65 33 91 59 7 7 8 17 3 25l-1 1h9c3 0 6-1 8-3l24-28c0-1 1-2 1-3l27-73c2-7 8-11 14-13 1 0 3 0 4 0 5 0 10 2 14 5l13 13c8 8 13 18 16 29 19-156-42-318-172-420-8-7-10-19-3-28 7-8 19-10 27-3 94 74 158 179 182 296 23 119 3 242-58 347z m-841-302l81-61c2-2 5-3 8-4l49-10c6-1 11-4 14-10 3-5 4-12 2-18-4-12-4-25 0-37l6-19c4-12-2-24-14-28l-19-6c-7-2-12-8-13-15l-16-81c-34 31-64 68-89 111-30 51-48 106-57 162l48 16z m114 311l-23-24c-1-1-2-3-2-4l-53-91-46-33c-9-6-11-18-5-27l18-25c-10-2-19-3-25-4-1 1-3 2-4 4-5 4-11 10-21 18 16 98 64 191 138 261 14-4 26-15 32-29 6-15 3-33-9-46z m159-106c9 4 29 5 44 6 6 0 12 0 17 1 2 0 5 0 8 0-1-4-2-7-1-11 1-6 5-11 10-14 4-2 9-5 14-9 15-10 33-21 49-22 15-1 23 7 26 11 1 0 1 0 1 0 2 2 4 4 6 7 3-1 6-2 9-3 12-3 33-9 38-14 9-9 15-26 21-41 3-8 6-15 9-21 1-3 2-6 4-9 9-20 19-43 41-57 10-7 22-8 32-10 1 0 3 0 4-1-6-9-15-17-24-26-25-22-55-50-41-95 7-21 7-23-3-35-2-1-3-3-4-4-9-10-17-17-22-36-2-5-4-8-8-12-4-4-8-8-11-15-5-7-6-15-7-20-2-6-2-9-4-12-6-6-15-15-25-22-9-6-15-6-17-6-2 2-9 12-21 46-2 8-6 17-10 25-8 18-17 37-13 50 1 2 1 3 2 5 6 20 13 39 1 67-4 9-9 15-14 20-3 4-7 8-8 10 0 3 0 6 0 10 0 10 0 26-15 40-22 20-47 14-64 10-5-1-10-2-14-3-28-3-52 7-67 29-16 22-19 52-7 78 6 12 15 22 26 34 2 3 4 5 7 8 3 4 8 10 12 16 5 8 15 22 19 25z m436-325l-10 35c-2 8-8 13-16 14-8 1-16-3-20-10-2-4-4-8-5-12-4-7-7-14-10-18-2-2-7-4-12-6-11-6-26-13-32-32-4-12-3-21-2-27 1-6 2-8 0-12l0 0c-6-15-18-42-2-65 12-17 24-21 33-21 2 0 4 0 6 0 20 4 35 24 47 66l23 77c1 4 1 7 0 11z m-61-77c-6-21-11-31-15-35 0 0 0 1-1 1-4 5 2 19 6 27l0 1c6 14 4 24 3 32-1 5-1 7 0 10 1 3 5 5 12 8 3 2 7 4 10 6l-15-50z m-213 517l-1 0c-10 4-21-1-25-12-3-10 2-21 12-24l2-1c2-1 4-1 6-1 8 0 16 5 18 13 4 10-1 21-12 25z" horiz-adv-x="1000" />

<glyph glyph-name="logout" unicode="&#xe822;" d="M483-93h-261c-71 0-128 58-128 129v628c0 71 58 129 128 129h265c16 0 29 12 29 28s-13 29-29 29h-265c-102 0-185-83-185-186v-628c0-103 83-186 185-186h261c16 0 29 13 29 29s-13 28-29 28z m472 463l-182 182c-11 12-29 12-41 0-11-11-11-29 0-40l134-134h-582c-15 0-28-12-28-28s13-29 28-29h582l-134-133c-11-11-11-29 0-41 6-5 13-8 21-8s14 3 20 8l182 182c11 12 11 30 0 41z" horiz-adv-x="1000" />

<glyph glyph-name="lobby" unicode="&#xe823;" d="M877 61c74 55 119 194 123 386 0 12-4 23-13 32-8 8-19 13-31 13h-11c-29 0-55-17-67-43l-86-189c-10 9-24 14-40 16v60c0 29-23 59-73 59h-215c-28 0-47-9-59-22-12 13-31 22-58 22h-114c-8 0-15-7-15-15s7-15 15-15h114c26 0 44-11 44-29v-127c0-8 6-15 14-15s15 7 15 15v127c0 18 17 29 44 29h215c26 0 44-11 44-29v-59c-41-6-59-32-59-58v-60h-83c-17 0-32-10-40-25-7-15-5-33 5-47 18-22 46-40 79-52l-17-52h-186l-10 30c51 5 73 29 73 53 0 19-15 34-34 34h-31v18c0 8 10 11 20 11h63c8 0 14 7 14 15s-6 15-14 15h-63c-14 0-26-4-35-11-9 7-22 11-35 11h-223v60c0 26-19 52-59 58v59c0 18 17 29 44 29h42c8 0 15 7 15 15s-7 15-15 15h-42c-51 0-73-30-73-59v-59c-41-6-59-32-59-58v-251c0-8 7-14 15-14h81c8 0 14 6 14 14s-6 15-14 15h-67v236c0 18 18 29 44 29s44-11 44-29v-119h-5c-18 0-34-15-34-34 0-24 23-48 73-53l-23-73c-2-8 2-16 10-18 1-1 3-1 4-1 6 0 12 4 14 10l7 23h237l8-23c2-6 7-10 14-10 1 0 2 0 4 1 8 2 12 10 9 18l-4 14h168l-4-14c-3-8 2-16 9-18 2-1 3-1 5-1 6 0 12 4 14 10l7 23h166c8 0 15 6 15 14s-7 15-15 15h-157l14 44c23-6 47-8 73-8 46 0 90 9 125 27l37-115c2-6 7-10 14-10 1 0 3 0 4 1 8 2 12 10 10 18z m-730 68h223c10 0 21-3 21-11v-18h-244z m-40-63c0 3 3 5 5 5h339c3 0 5-2 5-5 0-8-15-24-63-24 0 0 0 0 0 0h-222c0 0 0 0 0 0-29 0-45 6-53 11-8 5-11 10-11 13z m65-83l10 29h200l9-29z m733 454c7 16 23 26 40 26h10l-120-261c-11-26-37-43-65-43 9 8 16 19 22 30z m-212-218c0 18 18 29 44 29 20 0 35-6 41-17l-13-29c-12-26-38-43-67-43h-5z m-124-113c-3 4-4 10-1 15 2 5 7 8 13 8h117 71c40 0 76 24 93 60l108 236c-7-176-51-305-119-346-33-20-77-31-125-31-67 0-129 23-157 58z m-496 377h664c8 0 15 6 15 14v268c0 8-7 14-15 14h-205c-8 0-15-6-15-14s7-15 15-15h191v-35c-60-33-108-67-126-81-22 13-78 45-117 45-35 0-66-15-104-35-60-30-140-71-288-73v179h385c9 0 15 7 15 15s-6 14-15 14h-400c-8 0-14-6-14-14v-268c0-8 6-14 14-14z m316 135c35 18 63 32 91 32 33 0 90-33 110-46 5-3 12-3 17 1 0 0 49 38 116 76v-169h-635v29c155 3 239 46 301 77z" horiz-adv-x="1000" />

<glyph glyph-name="languages" unicode="&#xe824;" d="M941 544c2 4 3 10 3 15v242c0 27-23 49-50 49h-304c-27 0-49-22-49-49v-18c-66 1-134-12-194-39-55-24-104-58-147-101h-52c-8 0-14-6-14-14s6-15 14-15h205c12 0 21-9 21-20v-242c0-11-9-20-21-20h-28c-21 0-38-17-38-38v-34l-90 65c-6 5-14 7-22 7h-125c-12 0-21 9-21 20v242c0 11 9 20 21 20h30c8 0 15 7 15 15s-7 14-15 14h-30c-28 0-50-22-50-49v-242c0-27 22-49 50-49h17c4-120 52-231 137-316 88-89 205-137 329-137 65 0 128 13 187 39 57 25 108 60 151 105 5 6 5 15-1 21-6 5-15 5-21-1-32-33-68-61-108-83-19 25-46 55-64 84l3 2c2 1 4 2 6 2h125c27 0 50 22 50 49v242c0 3-1 6-1 10 25 30 39 68 39 109-1 28-9 56-24 80h19c10 0 20 4 28 9 32-62 49-131 49-201 0-91-28-178-79-251-5-7-3-16 3-21 5-3 14-4 21 4 55 79 84 171 84 268 0 79-20 158-59 227z m-588 99h-110c34 31 73 56 114 74l10-11c16-22 26-53 23-79-9 10-22 16-37 16z m341-700c8-9 14-17 20-25-56-25-117-39-181-39-163 0-307 91-381 225 20 17 47 38 68 35 9-1 16-6 24-15 17-24 47-29 69-30 31 2 59 18 77 44 4 7 2 16-4 20-7 5-16 3-21-3-12-19-29-29-52-32-24 2-38 8-46 18-12 16-27 25-44 27-31 4-61-18-85-38-25 53-40 111-42 173h79c2 0 4-1 5-2l95-68c4-3 10-5 15-5 4 0 8 1 12 3 9 4 15 13 15 23v40c0 5 4 9 8 9h28c28 0 50 22 50 49v63c17-11 45-21 68-20 24 0 48 7 69 22 27 18 46 47 51 80 1 4 2 8 2 12h25c5 0 9-3 9-8v-40c0-10 6-19 14-24 8-3 17-4 28 3l60 43c-2-23-8-47-36-74-13-14-21-31-21-50h-165c-27 0-49-22-49-49v-6c-28-11-49-34-59-62-2-7-6-17-9-28-2-7 2-16 10-18 6-2 14 0 18 10 2 7 5 16 9 26 5 17 16 31 31 39v-203c0-27 22-49 49-49h28c5 0 9-4 9-9v-40c0-10 6-19 14-23 4-2 8-3 12-3 6 0 11 2 16 5l67 48c12-19 27-37 41-54z m137 125c0-11-9-20-20-20h-125c-9 0-16-2-23-7l-90-65v34c0 21-17 38-38 38h-28c-11 0-20 9-20 20v242c0 11 9 20 20 20h181c0 0 0 0 0 0 0 0 0 0 0 0h123c11 0 20-9 20-20v-242z m38 361c0-30-9-59-25-82-9 8-20 12-33 12h-110c1 11 5 21 13 29 41 41 44 78 46 107 0 4 0 7 0 10l4 3c1 1 3 1 5 1h70c19-22 30-51 30-80z m25 110h-125c-8 0-16-3-23-7l-8-7c0 0 0 0 0 0l-82-58v34c0 21-17 38-38 38h-28c-11 0-20 9-20 20v55c0 8-7 14-15 14s-14-6-14-14v-55c0-18 9-34 23-42 0-6-1-11-2-16-4-24-18-46-39-60-36-26-85-19-120 9v133c31 41 16 107-17 146 47 16 102 26 155 25v-72c0-8 6-15 14-15s15 7 15 15v119c0 11 9 20 20 20h304c11 0 20-9 20-20v-242c0-11-9-20-20-20z m-61 214h-76v25c0 8-7 14-15 14s-14-6-14-14v-25h-76c-8 0-15-7-15-15s7-14 15-14h30c7-32 21-60 40-85-14-14-32-26-51-34l-20-9c-8-3-11-12-8-19 3-6 8-9 14-9 2 0 4 0 6 1l20 9c22 10 42 23 59 40 17-17 37-30 60-40l20-9c5-2 15-1 19 8 3 7 0 16-7 19l-20 9c-20 8-37 20-52 34 19 25 33 53 40 85h31c8 0 14 6 14 14s-6 15-14 15z m-91-91c-14 18-24 39-30 62h60c-6-23-16-44-30-62z m-615-290c8-3 16 0 19 8l13 34h85l13-34c2-6 8-9 14-9 2 0 3 0 5 1 8 2 11 11 9 18l-66 174c0 0 0 0-1 0-2 7-9 12-17 12 0 0 0 0 0 0-7 0-14-5-17-12 0 0 0 0 0 0l-66-174c-2-7 1-16 9-18z m74 155l32-84h-63z m570-249h-68c-8 0-14-7-14-15s6-15 14-15h20v-45h-59c4 7 6 14 6 23 0 28-24 52-53 52h-42c-8 0-15-7-15-15s7-15 15-15h42c13 0 23-10 23-22s-10-23-23-23h-47c-8 0-14-7-14-15s6-15 14-15h47c13 0 23-10 23-23 0-13-10-23-23-23-20 0-43 3-60 20-5 5-15 5-20 0-6-6-6-15 0-21 24-25 56-28 80-28 29 0 53 24 53 52 0 9-2 16-6 23h59v-60c0-8 6-15 14-15s15 7 15 15v135h19c8 0 15 7 15 15s-7 15-15 15z" horiz-adv-x="1000" />

<glyph glyph-name="language" unicode="&#xe825;" d="M500 850c-276 0-500-224-500-500s224-500 500-500 500 224 500 500c0 276-224 500-500 500z m432-675l-142-25c17 60 25 122 26 183h150c-2-54-13-108-34-158z m-898 158h150c1-61 10-123 26-183l-142 25c-21 50-32 104-34 158z m34 192l142 25c-16-60-25-121-26-183h-150c2 54 13 108 34 158z m449 57c60 0 119-6 178-16l59-10c18-62 28-125 29-189h-266z m184 17c-61 10-122 16-184 17v200c95-9 178-97 225-224z m-218 17c-61-1-123-7-184-17l-41-7c47 127 130 215 225 224z m-178-50c59 10 118 16 178 16v-215h-266c1 64 11 127 29 189z m-88-233h266v-215c-60 0-119 6-178 16l-59 10c-18 62-28 125-29 189z m82-232c61-10 123-16 184-17v-200c-95 9-178 97-225 224z m218-17c62 1 123 7 184 17l41 7c-47-127-130-215-225-224z m178 50c-59-10-118-16-178-16v215h266c-1-64-11-127-29-189z m121 233c-1 62-9 123-26 183l142-25c21-50 32-104 34-158z m100 195l-137 23c-24 80-70 152-132 208 116-39 213-122 269-231z m-563 231c-62-56-108-128-132-208l-137-23c56 109 153 192 269 231z m-269-655l137-23c24-80 70-152 132-208-116 39-213 122-269 231z m563-231c62 56 108 128 132 208l137 23c-56-109-153-192-269-231z m0 0" horiz-adv-x="1000" />

<glyph glyph-name="report" unicode="&#xe826;" d="M515 788c-130 73-265 80-396 21v41h-58v-1000h58v365c120 63 247 61 367-8 71-41 145-61 219-61 74 0 148 20 220 61l15 9v597l-44-25c-125-72-257-72-381 0z" horiz-adv-x="1000" />

<glyph glyph-name="loupe" unicode="&#xe827;" d="M606 479c-11 0-20-9-20-20s9-19 20-19c10 0 19 9 19 19s-9 20-19 20z m371-496l-261 261c43 64 65 138 65 215 0 216-175 391-390 391s-391-175-391-391 175-390 391-390c77 0 151 22 215 65l72-72c0 0 0 0 0 0l189-189c14-15 34-23 55-23 21 0 40 8 55 23 15 15 23 34 23 55s-8 41-23 55z m-380 192c0 0 0 0 0 0-60-44-132-67-206-67-194 0-352 158-352 351s158 352 352 352 351-158 351-352c0-74-23-145-67-206-22-30-48-56-78-78z m41-18c20 17 38 35 55 55l55-55c-16-20-35-38-55-55l-55 55z m312-257c-8-7-18-11-28-11s-20 4-28 11l-173 174c20 17 38 35 55 55l174-173c7-8 11-17 11-28 0-10-4-20-11-28z m-559 872c-173 0-313-140-313-313s140-312 313-312 312 140 312 312-140 313-312 313z m0-586c-151 0-274 123-274 273s123 274 274 274 273-123 273-274-123-273-273-273z m219 357c-17 44-47 81-85 108-40 28-86 43-134 43-11 0-20-9-20-20 0-11 9-19 20-19 80 0 153-51 182-126 3-8 10-12 18-12 3 0 5 0 7 1 10 4 15 15 12 25z" horiz-adv-x="1000" />

<glyph glyph-name="loupe(1)" unicode="&#xe828;" d="M988-79l-285 285c56 68 89 154 89 248 0 218-178 396-396 396s-396-178-396-396 178-396 396-396c94 0 181 34 249 89l284-285c8-8 19-12 29-12s22 4 30 12c16 16 16 43 0 59z m-592 221c-172 0-313 140-313 312s141 313 313 313 312-140 312-313-140-312-312-312z" horiz-adv-x="1000" />

<glyph glyph-name="info" unicode="&#xe829;" d="M352 850q48 0 74-27t26-69q0-50-39-88t-95-38q-48 0-74 26t-24 72q0 46 35 85t97 39z m-206-1000q-100 0-54 178l60 254q14 56 0 56-12 0-54-18t-72-38l-26 44q90 78 189 126t151 48q78 0 36-162l-70-266q-16-64 6-64 44 0 118 60l30-40q-84-86-175-132t-139-46z" horiz-adv-x="460" />

<glyph glyph-name="angle-left" unicode="&#xf111;" d="M350 546q0-7-6-12l-219-220 219-219q6-6 6-13t-6-13l-28-28q-5-5-12-5t-13 5l-260 261q-6 5-6 12t6 13l260 260q5 6 13 6t12-6l28-28q6-5 6-13z" horiz-adv-x="357.1" />

<glyph glyph-name="angle-right" unicode="&#xf112;" d="M332 314q0-7-5-12l-261-261q-5-5-12-5t-13 5l-28 28q-6 6-6 13t6 13l219 219-219 220q-6 5-6 12t6 13l28 28q5 6 13 6t12-6l261-260q5-5 5-13z" horiz-adv-x="357.1" />

<glyph glyph-name="angle-up" unicode="&#xf113;" d="M600 189q0-7-6-12l-28-28q-5-6-12-6t-13 6l-220 219-219-219q-5-6-13-6t-12 6l-28 28q-6 5-6 12t6 13l260 260q5 6 12 6t13-6l260-260q6-5 6-13z" horiz-adv-x="642.9" />

<glyph glyph-name="angle-down" unicode="&#xf114;" d="M600 439q0-7-6-12l-260-261q-5-5-13-5t-12 5l-260 261q-6 5-6 12t6 13l28 28q5 6 12 6t13-6l219-219 220 219q5 6 13 6t12-6l28-28q6-5 6-13z" horiz-adv-x="642.9" />

<glyph glyph-name="sort-name-up" unicode="&#xf15d;" d="M665 622h98l-40 122-6 26q-2 9-2 11h-2l-1-11q0 0-2-10t-5-16z m-254-576q0-6-6-13l-178-178q-5-5-13-5-6 0-12 5l-179 179q-8 9-4 19 4 11 17 11h107v768q0 8 5 13t13 5h107q8 0 13-5t5-13v-768h107q8 0 13-5t5-13z m466-66v-130h-326v50l206 295q7 11 12 16l6 5v1q-1 0-3 0t-5 0q-6-2-16-2h-130v-64h-67v128h317v-50l-206-296q-4-4-12-14l-6-7v-1l8 1q5 2 16 2h139v66h67z m50 501v-60h-161v60h42l-26 80h-136l-26-80h42v-60h-160v60h39l128 369h91l128-369h39z" horiz-adv-x="928.6" />

<glyph glyph-name="sort-name-down" unicode="&#xf15e;" d="M665 51h98l-40 122-6 26q-2 9-2 11h-2l-1-11q0-1-2-10t-5-16z m-254-5q0-6-6-13l-178-178q-5-5-13-5-6 0-12 5l-179 179q-8 9-4 19 4 11 17 11h107v768q0 8 5 13t13 5h107q8 0 13-5t5-13v-768h107q8 0 13-5t5-13z m516-137v-59h-161v59h42l-26 80h-136l-26-80h42v-59h-160v59h39l128 370h91l128-370h39z m-50 643v-131h-326v51l206 295q7 10 12 15l6 5v2q-1 0-3-1t-5 0q-6-2-16-2h-130v-64h-67v128h317v-50l-206-295q-4-5-12-15l-6-5v-2l8 2q5 0 16 0h139v67h67z" horiz-adv-x="928.6" />

<glyph glyph-name="sort-alt-up" unicode="&#xf160;" d="M411 46q0-6-6-13l-178-178q-5-5-13-5-6 0-12 5l-179 179q-8 9-4 19 4 11 17 11h107v768q0 8 5 13t13 5h107q8 0 13-5t5-13v-768h107q8 0 13-5t5-13z m589-71v-107q0-8-5-13t-13-5h-464q-8 0-13 5t-5 13v107q0 8 5 13t13 5h464q8 0 13-5t5-13z m-107 286v-107q0-8-5-13t-13-5h-357q-8 0-13 5t-5 13v107q0 8 5 13t13 5h357q8 0 13-5t5-13z m-107 285v-107q0-7-5-12t-13-6h-250q-8 0-13 6t-5 12v107q0 8 5 13t13 5h250q8 0 13-5t5-13z m-107 286v-107q0-8-5-13t-13-5h-143q-8 0-13 5t-5 13v107q0 8 5 13t13 5h143q8 0 13-5t5-13z" horiz-adv-x="1000" />

<glyph glyph-name="sort-alt-down" unicode="&#xf161;" d="M679-25v-107q0-8-5-13t-13-5h-143q-8 0-13 5t-5 13v107q0 8 5 13t13 5h143q8 0 13-5t5-13z m-268 71q0-6-6-13l-178-178q-5-5-13-5-6 0-12 5l-179 179q-8 9-4 19 4 11 17 11h107v768q0 8 5 13t13 5h107q8 0 13-5t5-13v-768h107q8 0 13-5t5-13z m375 215v-107q0-8-5-13t-13-5h-250q-8 0-13 5t-5 13v107q0 8 5 13t13 5h250q8 0 13-5t5-13z m107 285v-107q0-7-5-12t-13-6h-357q-8 0-13 6t-5 12v107q0 8 5 13t13 5h357q8 0 13-5t5-13z m107 286v-107q0-8-5-13t-13-5h-464q-8 0-13 5t-5 13v107q0 8 5 13t13 5h464q8 0 13-5t5-13z" horiz-adv-x="1000" />
</font>
</defs>
</svg>
