<svg id="Layer_1" enable-background="new 0 0 512 512" height="512" viewBox="0 0 512 512" width="512" xmlns="http://www.w3.org/2000/svg"><path d="m480.8 30.4h-64.9v-14.4c0-8.8-7.2-16-16-16s-16 7.2-16 16v14.4h-255.8v-14.4c0-8.8-7.2-16-16-16s-16 7.2-16 16v14.4h-64.9c-8.8 0-16 7.2-16 16v449.6c0 8.8 7.2 16 16 16h449.6c8.8 0 16-7.2 16-16v-449.6c0-8.9-7.1-16-16-16zm-384.7 32v14.4c0 8.8 7.2 16 16 16s16-7.2 16-16v-14.4h255.8v14.4c0 8.8 7.2 16 16 16s16-7.2 16-16v-14.4h48.9v62.8h-417.6v-62.8zm-48.9 417.6v-322.9h417.6v322.9zm262.3-77.6c0 8.8-7.2 16-16 16h-74.9c-8.8 0-16-7.2-16-16s7.2-16 16-16h21.4v-113.1l-10.2 10.2c-6.2 6.2-16.4 6.2-22.6 0s-6.2-16.4 0-22.6l37.5-37.5c4.6-4.6 11.5-5.9 17.4-3.5 6 2.5 9.9 8.3 9.9 14.8v151.7h21.5c8.8 0 16 7.2 16 16z"/></svg>