<svg id="Capa_1" enable-background="new 0 0 512 512" height="512" viewBox="0 0 512 512" width="512" xmlns="http://www.w3.org/2000/svg"><g><g><path d="m62.171 233.448c-1.219 0-2.438 0-3.048-.61-4.876-1.829-7.314-7.314-5.486-11.581 7.924-20.114 20.724-37.79 38.4-54.248 9.752-8.533 20.724-16.457 32.914-23.771 6.095-3.657 12.8-7.314 20.114-10.362 4.876-1.829 9.752 0 12.19 4.267 1.829 4.876 0 9.752-4.876 12.19-6.095 3.048-12.19 6.095-18.286 9.143-10.971 6.095-20.724 13.41-29.867 21.333-15.848 14.019-26.819 29.867-33.524 46.933-1.216 4.268-4.873 6.706-8.531 6.706z"/></g><path d="m173.714 141.41c-4.267 0-7.924-3.048-9.143-7.314-1.219-4.876 1.829-9.752 6.705-10.971 4.267-1.219 7.924-1.829 12.19-2.438 4.876-1.219 9.752 2.438 10.971 7.314s-2.438 9.752-7.314 10.971c-3.657.61-7.924 1.829-11.581 2.438-.609 0-1.218 0-1.828 0z"/><g><path d="m256 441.905c-141.41 0-256-83.505-256-185.905s114.59-185.905 256-185.905 256 83.505 256 185.905c0 25.6-6.705 49.981-20.724 73.143l15.238 30.476c5.486 10.971 4.267 23.771-3.048 33.524-7.314 9.752-19.505 14.019-31.695 11.581l-45.714-9.752c-46.933 30.476-107.276 46.933-170.057 46.933zm0-347.429c-128 0-231.619 72.534-231.619 161.524s103.619 161.524 231.619 161.524c60.343 0 117.029-16.457 160.914-45.714 2.438-1.829 6.095-2.438 9.143-1.829l50.59 10.362c4.267.61 6.095-1.829 7.314-2.438.61-1.219 2.438-4.267.61-7.314l-18.286-36.571c-1.829-3.657-1.829-8.533.609-12.19 13.41-20.724 20.114-43.276 20.114-65.829.611-88.991-103.008-161.525-231.008-161.525z"/></g><g><path d="m191.39 209.067v31.695c0 2.438 1.829 4.876 4.876 4.876h29.867c2.438 0 4.876-1.829 4.876-4.876v-31.695c0-2.438 1.829-4.876 4.876-4.876h14.629c2.438 0 4.876 1.829 4.876 4.876v96.914c0 2.438-1.829 4.876-4.876 4.876h-14.629c-2.438 0-4.876-1.829-4.876-4.876v-34.743c0-2.438-1.829-4.876-4.876-4.876h-29.867c-2.438 0-4.876 1.829-4.876 4.876v34.743c0 2.438-1.829 4.876-4.876 4.876h-14.629c-2.438 0-4.876-1.829-4.876-4.876v-96.914c0-2.438 1.829-4.876 4.876-4.876h14.629c3.048-.001 4.876 2.438 4.876 4.876z"/><path d="m300.495 212.114c0 6.705-4.876 12.19-12.8 12.19-7.314 0-12.8-5.486-12.19-12.19 0-6.705 4.876-12.19 12.8-12.19s12.19 4.876 12.19 12.19zm-24.99 93.257v-67.048c0-2.438 2.438-4.876 4.876-4.876h14.019c2.438 0 4.876 2.438 4.876 4.876v67.048c0 2.438-2.438 4.876-4.876 4.876h-14.019c-2.438.001-4.876-1.828-4.876-4.876z"/><path d="m316.343 299.886c-1.219-9.143 7.314-17.676 16.457-15.848 6.705 1.219 10.971 6.705 11.581 14.019 0 7.924-5.486 14.629-14.019 14.629-7.924-.61-13.41-6.096-14.019-12.8zm4.876-29.257-3.048-61.562c0-3.048 2.438-5.486 4.876-5.486h14.629c3.048 0 4.876 2.438 4.876 5.486l-3.048 61.562c0 2.438-2.438 4.876-4.876 4.876h-8.533c-2.438 0-4.876-1.829-4.876-4.876z"/></g></g></svg>