<svg id="Outline" height="512" viewBox="0 0 64 64" width="512" xmlns="http://www.w3.org/2000/svg"><g fill="rgb(0,0,0)"><path d="m32 37a18 18 0 1 1 18-18 18.021 18.021 0 0 1 -18 18zm0-34a16 16 0 1 0 16 16 16.019 16.019 0 0 0 -16-16z"/><path d="m40 27h-16a1 1 0 0 1 -1-1 9 9 0 0 1 18 0 1 1 0 0 1 -1 1zm-14.929-2h13.858a7 7 0 0 0 -13.858 0z"/><path d="m32 19a6 6 0 1 1 6-6 6.006 6.006 0 0 1 -6 6zm0-10a4 4 0 1 0 4 4 4 4 0 0 0 -4-4z"/><circle cx="29" cy="30" r="1"/><circle cx="32" cy="30" r="1"/><circle cx="35" cy="30" r="1"/><path d="m8 54a1 1 0 0 1 -.707-1.707l11-11a1 1 0 0 1 .707-.293h16a4 4 0 0 1 0 8h-10a1 1 0 0 1 0-2h10a2 2 0 0 0 0-4h-15.586l-10.707 10.707a1 1 0 0 1 -.707.293z"/><path d="m17 63a1 1 0 0 1 -.707-1.707l6-6a1 1 0 0 1 .707-.293h20.629l10.827-10.826a1.86 1.86 0 1 0 -2.63-2.63l-7.162 7.163a1 1 0 0 1 -.707.293h-9.957a1 1 0 0 1 0-2h9.542l6.87-6.87a3.859 3.859 0 0 1 5.458 5.458l-11.12 11.119a1 1 0 0 1 -.707.293h-20.629l-5.707 5.707a1 1 0 0 1 -.707.293z"/><path d="m37 49a1 1 0 0 1 -.708-1.706l7.136-7.16a3.821 3.821 0 0 1 2.725-1.134h.009a3.8 3.8 0 0 1 2.712 1.137 3.838 3.838 0 0 1 1.126 2.723v.1a1 1 0 1 1 -2 0v-.1a1.864 1.864 0 0 0 -1.842-1.86h-.005a1.838 1.838 0 0 0 -1.309.546l-7.136 7.16a1 1 0 0 1 -.708.294z"/></g></svg>